<svg width="256" height="256" viewBox="0 0 256 256" fill="none" xmlns="http://www.w3.org/2000/svg">
<path d="M221.95 234.025C223.582 236.822 221.582 240.343 218.352 240.354L15.0381 241C13.5753 241.003 12.2161 240.242 11.4532 238.988L2.0844 223.595C0.383644 220.802 2.37811 217.214 5.63948 217.202L168.502 216.558C175.197 216.531 179.416 209.311 176.172 203.431L154.204 163.587L154.109 163.414L154.005 163.247L135.101 132.634C134.296 131.331 134.262 129.691 135.012 128.356L143.82 112.667C145.405 109.842 149.444 109.808 151.077 112.605L221.95 234.025ZM254.419 206.147C255.225 207.52 255.188 209.231 254.325 210.569L243.486 227.36C241.791 229.985 237.936 229.898 236.361 227.199L154.875 87.5956L154.793 87.4586C151.334 81.7563 143.046 81.8263 139.682 87.5865L139.603 87.7248L117.747 126.656L98.7072 157.49C97.9438 158.726 96.5983 159.478 95.1496 159.478H77.4191C74.2052 159.478 72.1902 155.992 73.7848 153.19L143.792 30.1859C145.386 27.3848 149.399 27.3572 151.032 30.1361L254.419 206.147ZM126.373 16C129.587 16 131.602 19.4862 130.008 22.2879L50.3873 162.182C47.0321 168.078 51.2716 175.413 58.0344 175.413H140.117C141.639 175.413 143.041 176.243 143.779 177.58L153.085 194.46C154.626 197.255 152.621 200.685 149.44 200.698L5.2076 201.268C1.97398 201.281 -0.0522184 197.764 1.57081 194.956L103.793 18.0933C104.542 16.7975 105.921 16 107.413 16L126.373 16Z" fill="url(#paint0_linear_21_33)"/>
<defs>
<linearGradient id="paint0_linear_21_33" x1="107.867" y1="34.3685" x2="221.388" y2="219.244" gradientUnits="userSpaceOnUse">
<stop stop-color="#1DBDE6"/>
<stop offset="0.5" stop-color="#8544C1"/>
<stop offset="1" stop-color="#F1515E"/>
</linearGradient>
</defs>
</svg>
